<svg id="Layer_1" data-name="Layer 1" xmlns="http://www.w3.org/2000/svg" viewBox="0 0 183.68 45" width="183.68px" height="45px"><defs><style>.cls-1{fill:#fff;}.cls-2{fill:#c8102e;}.cls-3{fill:#1d428a;}</style></defs><title>nba-live-mobile-dark-nav-logo</title><g id="Layer_1-2" data-name="Layer 1-2"><path d="M131.32,3.32h4.35l-3.11,16.54h7.95L139.74,24h-12.3Zm19.43,0H146.4L142.52,24h4.34Zm18.46,0h-4.32l-6.51,14-1.22-14h-4.32L155,24h4.32ZM167.54,24H180l.76-4.09h-8.09l.83-4.43h7.44l.77-4.09h-7.44L175,7.46h8.07l.77-4.09H171.42ZM89.43,3.32h-4.2L83,15.4,78.57,3.32H74.38L70.49,24h4.2L77,12l4.4,12h4.2Zm4.9,12h4.52c.21,0,.31.12.27.31l-.74,4a.37.37,0,0,1-.36.31H93.46Zm-6,8.68H98.74a4,4,0,0,0,3.75-3.22l1-5.39a1.67,1.67,0,0,0-1.27-2h0a3,3,0,0,0,1.94-2L105,6.65a2.57,2.57,0,0,0-1.84-3.14,2.74,2.74,0,0,0-.7-.08H92.24ZM95,11.64l.8-4.28h4.41a.25.25,0,0,1,.27.25.28.28,0,0,1,0,.09l-.68,3.66a.33.33,0,0,1-.33.28Zm23.24-8.27h-4.37L103.49,24h4.43l2-4.09h6.15l.49,4.09H121ZM115,9l.51,6.88h-3.6Z" transform="translate(-0.16)"/><path d="M126.6,28.43h8.14l-.51,2.68H129l-.49,2.58h4.88l-.5,2.68H128l-.55,2.91h5.31l-.5,2.68h-8.16Zm-10.73,0h2.85l-2,10.85h5.2L121.41,42h-8.07ZM110.26,42h-2.85l2.52-13.53h2.85ZM98.89,39.34h3a.23.23,0,0,0,.23-.21l.49-2.59a.16.16,0,0,0-.1-.2.11.11,0,0,0-.08,0h-3Zm3.94-5.49a.23.23,0,0,0,.22-.18l.45-2.39c0-.13,0-.23-.18-.23h-2.89l-.53,2.8Zm-4.76-5.42h6.72a1.69,1.69,0,0,1,1.72,1.66,1.38,1.38,0,0,1-.05.45l-.58,3.11A1.9,1.9,0,0,1,104.61,35a1.09,1.09,0,0,1,.86,1.28v0l-.66,3.54A2.65,2.65,0,0,1,102.35,42H95.54Zm-6.56,2.68H88.44a.23.23,0,0,0-.23.21l-1.45,7.75a.16.16,0,0,0,.07.2H90a.25.25,0,0,0,.24-.21l1.44-7.75c0-.13,0-.21-.15-.21M90.37,42H85.53a1.77,1.77,0,0,1-1.8-1.74,1.4,1.4,0,0,1,.06-.5l1.69-9a2.77,2.77,0,0,1,2.58-2.24h4.83a1.78,1.78,0,0,1,1.81,1.75,2.05,2.05,0,0,1-.06.49l-1.69,9A2.77,2.77,0,0,1,90.37,42m-18-7.11L71,42H68.28L70.8,28.47h2.75l1.78,8.11,4.83-8.15h2.75L80.35,42H77.6l1.32-7.11-3,5H73.51Z" transform="translate(-0.16)"/><path class="cls-1" d="M60.46,6.73H53.08A3.26,3.26,0,0,0,49.81,10V35a3.26,3.26,0,0,0,3.27,3.27h7.38A3.29,3.29,0,0,0,63.73,35V10a3.26,3.26,0,0,0-3.27-3.27h0" transform="translate(-0.16)"/><path class="cls-2" d="M58.63,12.51v.11c.22.13.34.23.56.38.61.38,1.35,1.05,1.26,3.38.16.5.24,1.5.4,1.82a5.15,5.15,0,0,1,.61,1.61,3.45,3.45,0,0,0,.21,1c.62.14.44.2.53.31s.46.12.46.46a2,2,0,0,1,.29.52V10a2.48,2.48,0,0,0-2.48-2.5H58.08a1.09,1.09,0,0,1,.72.55c.31,0,.68.72.11,1.74.25.16,0,.42-.13.71a.28.28,0,0,1-.28.25c-.22.45-.48.89-.68.92a.32.32,0,0,0,0,.37,2.91,2.91,0,0,1,.82.47" transform="translate(-0.16)"/><path class="cls-2" d="M63,23.71a2.23,2.23,0,1,1-2.6-3,16.75,16.75,0,0,0-1-2,20.49,20.49,0,0,1-.6-2.87,4.3,4.3,0,0,0-1,.58s-.6,1.75-.6,1.84a1.41,1.41,0,0,0,0,.29s.32,0,.51.6.74,2.59.74,2.59l-.16.15c.7,2.35.46,3.37.77,4.06.4,1,.5.84.84,1.66.25.59.52,2.94.61,3a2.21,2.21,0,0,1,.59,1.13c0,.27-.33,1.08-.21,1.55.07.28.11.9.24,1a.23.23,0,0,1,.06.33c-.06.1,0,.09,0,.13.21.74.89,2-.21,2.66h0A2.48,2.48,0,0,0,63,35Z" transform="translate(-0.16)"/><path class="cls-3" d="M60.16,34.53c-.41-.36-.14-.51-.15-.65-.27-1.1-1.14-1.76-.69-2.12A5.73,5.73,0,0,0,59,31a13.41,13.41,0,0,1-2.7-2.23c-.23-.25-.64-.51-.71-.72a21,21,0,0,1-2.29-3.39l-.65-.1c-.29-1.2-1.28-2.21-1.3-3.41a7,7,0,0,1,.29-1.63,2,2,0,0,1,.45-.52v-.32c-1.41,0-1-.11-1.25-.66-.17-.38,0-.46,0-.72a16.48,16.48,0,0,1,1.08-2.52c.08-.28.36-.94.36-.94,1-2.15,1.44-2,2.69-2.11l.06-.09c1.25-.05,1-.15,1.22-1.35-.18.08-.23-.38-.23-.38-.1-.69.19-.56.33-.57,0-1.13.14-1.48,1-1.79H53.08A2.48,2.48,0,0,0,50.58,10V35a2.48,2.48,0,0,0,2.49,2.49h7.39c-.84-.45-.34-1.32-.31-3" transform="translate(-0.16)"/><path class="cls-1" d="M54.47,35.93V31.4h.88c.51,0,.83.28.83.91V33a.77.77,0,0,1-.31.73.74.74,0,0,1,.31.66V35a.77.77,0,0,1-.65.89h-.18Zm.61-2v1.39h.23c.21,0,.26-.11.26-.32v-.77c0-.22-.07-.3-.27-.3Zm0-2v1.5h.22c.22,0,.27-.08.27-.32v-.87c0-.21-.06-.31-.26-.31Zm2.51,3h-.54l-.08.92h-.61l.55-4.53h.87l.52,4.53h-.63Zm-.27-3.1h0c0,.55-.11,1.5-.14,1.81l-.06.78h.47l-.07-.78c0-.31-.12-1.26-.17-1.81m-4.64,4h-.55V31.4H53l.67,3.71c-.06-.88-.13-2-.13-2.87V31.4h.52v4.53H53.3l-.67-3.63c0,.84.06,1.51.06,2.2Z" transform="translate(-0.16)"/><path d="M22.66,0a22.5,22.5,0,1,0,22.5,22.5A22.5,22.5,0,0,0,22.66,0Zm0,41.88A19.38,19.38,0,1,1,42,22.5,19.38,19.38,0,0,1,22.66,41.88Z" transform="translate(-0.16)"/><path id="EA" d="M14.25,10.41H25.82L24,13.22H12.48Zm8.37,14.06H8l3.56-5.63H8.92L10.7,16H21.6l-1.78,2.81H14.93l-1.77,2.86H21l7.14-11.35,9,14.15H33.75L32,21.67h-5.3l1.78-2.82h1.7l-2-3.2Z" transform="translate(-0.16)"/><polygon points="37.87 26.22 37.64 26.22 37.64 26.71 37.52 26.71 37.52 26.22 37.3 26.22 37.3 26.12 37.87 26.12 37.87 26.22"/><path d="M38.82,26.71h-.11v-.36l-.19.29h0l-.19-.3v.37h-.17v-.59h.1l.23.36.23-.36h.09Z" transform="translate(-0.16)"/><path d="M11.9,30.7a1.23,1.23,0,0,1-.37.92,1.25,1.25,0,0,1-.91.38H9.09a1.25,1.25,0,0,1-1.27-1.27v-.61h.94l.14.56a.44.44,0,0,0,.48.35h1a.37.37,0,0,0,.31-.14.58.58,0,0,0,.12-.36v-.66c0-.33-.14-.49-.43-.49H9.16a1.31,1.31,0,0,1-1.29-1.3v-.87a1.17,1.17,0,0,1,1.29-1.29h1.51a1.22,1.22,0,0,1,.9.37,1.17,1.17,0,0,1,.37.9v.55H11l-.14-.5a.47.47,0,0,0-.48-.35h-1A.41.41,0,0,0,9,27a.52.52,0,0,0-.12.36v.51c0,.32.14.48.43.48h1.3a1.31,1.31,0,0,1,1.28,1.3Z" transform="translate(-0.16)"/><path d="M15.7,26.9H14.24v1.89H15.7a.41.41,0,0,0,.31-.14.58.58,0,0,0,.12-.36V27.4A.58.58,0,0,0,16,27,.41.41,0,0,0,15.7,26.9Zm1.51,1.58a1.3,1.3,0,0,1-1.3,1.29H14.24V32H13.16V25.92h2.75a1.26,1.26,0,0,1,.92.38,1.22,1.22,0,0,1,.38.9Z" transform="translate(-0.16)"/><path d="M26.16,26.9H24.74v1.74h1.42a.35.35,0,0,0,.3-.13.58.58,0,0,0,.12-.36V27.4a.58.58,0,0,0-.12-.36A.37.37,0,0,0,26.16,26.9Zm.6,5.1-1-2.38h-1V32H23.67V25.92h2.68a1.26,1.26,0,0,1,.92.38,1.22,1.22,0,0,1,.38.9v1.06a1.33,1.33,0,0,1-.23.75,1.38,1.38,0,0,1-.59.48L27.89,32Z" transform="translate(-0.16)"/><polygon points="32.34 26.9 30.78 26.9 30.78 32 29.71 32 29.71 26.9 28.16 26.9 28.16 25.92 32.34 25.92 32.34 26.9"/><path d="M37.37,30.7a1.23,1.23,0,0,1-.37.92,1.26,1.26,0,0,1-.92.38H34.56a1.25,1.25,0,0,1-1.28-1.27v-.61h.94l.14.56a.45.45,0,0,0,.48.35h1a.4.4,0,0,0,.32-.14.64.64,0,0,0,.11-.36v-.66c0-.33-.14-.49-.43-.49H34.58a1.3,1.3,0,0,1-1.3-1.3v-.87a1.3,1.3,0,0,1,1.3-1.29h1.5a1.25,1.25,0,0,1,1.27,1.23v.59h-.93l-.14-.5a.47.47,0,0,0-.48-.35h-1a.43.43,0,0,0-.32.14.58.58,0,0,0-.12.36v.51c0,.32.15.48.44.48h1.29a1.32,1.32,0,0,1,1.29,1.3Z" transform="translate(-0.16)"/><path d="M22.36,30.7a1.22,1.22,0,0,1-.38.92,1.26,1.26,0,0,1-.92.38H19.61a1.26,1.26,0,0,1-.92-.38,1.22,1.22,0,0,1-.38-.92V27.2a1.22,1.22,0,0,1,.38-.9,1.26,1.26,0,0,1,.92-.38h1.45a1.26,1.26,0,0,1,.92.38,1.22,1.22,0,0,1,.38.9Zm-1.51-3.8h-1a.43.43,0,0,0-.32.14.66.66,0,0,0-.11.36v3.12a.61.61,0,0,0,.11.35.41.41,0,0,0,.32.15h1a.37.37,0,0,0,.31-.15.5.5,0,0,0,.12-.35V27.4a.58.58,0,0,0-.12-.4A.39.39,0,0,0,20.85,26.9Z" transform="translate(-0.16)"/></g></svg>